<mxfile host="app.diagrams.net" agent="Mozilla/5.0 (Macintosh; Intel Mac OS X 10_15_7) AppleWebKit/537.36 (KHTML, like Gecko) Chrome/134.0.0.0 Safari/537.36" version="27.0.2">
  <diagram name="Page-1" id="2YBvvXClWsGukQMizWep">
    <mxGraphModel dx="1377" dy="767" grid="1" gridSize="10" guides="1" tooltips="1" connect="1" arrows="1" fold="1" page="1" pageScale="1" pageWidth="850" pageHeight="1100" math="0" shadow="0">
      <root>
        <mxCell id="0" />
        <mxCell id="1" parent="0" />
        <mxCell id="OVV9eZ6Od3LMRqROLXdW-1" value="Structural" style="aspect=fixed;fillColor=#66B2FF;strokeColor=#36393d;verticalAlign=bottom;align=center;spacingBottom=0;spacingRight=60;labelPosition=center;verticalLabelPosition=middle;horizontal=1;html=1;whiteSpace=wrap;textShadow=0;labelBorderColor=none;labelBackgroundColor=none;textDirection=rtl;" parent="1" vertex="1">
          <mxGeometry x="75" y="200" width="700" height="700" as="geometry" />
        </mxCell>
        <mxCell id="OVV9eZ6Od3LMRqROLXdW-2" value="Enabling" style="aspect=fixed;fillColor=#99CCFF;strokeColor=#36393d;verticalAlign=bottom;align=center;spacingBottom=0;spacingRight=60;labelPosition=center;verticalLabelPosition=middle;horizontal=1;html=1;whiteSpace=wrap;textShadow=0;labelBorderColor=none;labelBackgroundColor=none;textDirection=rtl;" parent="1" vertex="1">
          <mxGeometry x="175" y="300" width="500" height="500" as="geometry" />
        </mxCell>
        <mxCell id="OVV9eZ6Od3LMRqROLXdW-3" value="Immediate" style="aspect=fixed;fillColor=#CCE5FF;strokeColor=#36393d;verticalAlign=bottom;align=center;spacingBottom=0;spacingRight=60;labelPosition=center;verticalLabelPosition=middle;horizontal=1;html=1;whiteSpace=wrap;textShadow=0;labelBorderColor=none;labelBackgroundColor=none;textDirection=rtl;" parent="1" vertex="1">
          <mxGeometry x="275" y="400" width="300" height="300" as="geometry" />
        </mxCell>
        <mxCell id="OVV9eZ6Od3LMRqROLXdW-47" value="" style="endArrow=none;html=1;rounded=0;exitX=0;exitY=0.5;exitDx=0;exitDy=0;entryX=0;entryY=0.5;entryDx=0;entryDy=0;editable=0;movable=1;resizable=1;rotatable=1;deletable=1;locked=0;connectable=1;endFill=1;startFill=0;" parent="1" source="OVV9eZ6Od3LMRqROLXdW-1" target="OVV9eZ6Od3LMRqROLXdW-6" edge="1">
          <mxGeometry width="50" height="50" relative="1" as="geometry">
            <mxPoint x="370" y="590" as="sourcePoint" />
            <mxPoint x="420" y="540" as="targetPoint" />
          </mxGeometry>
        </mxCell>
        <mxCell id="OVV9eZ6Od3LMRqROLXdW-29" style="rounded=0;orthogonalLoop=1;jettySize=auto;html=1;elbow=vertical;curved=0;entryX=1;entryY=0.75;entryDx=0;entryDy=0;exitX=0;exitY=0.25;exitDx=0;exitDy=0;strokeWidth=2;jumpStyle=none;endArrow=classicThin;endFill=1;" parent="1" source="OVV9eZ6Od3LMRqROLXdW-8" target="OVV9eZ6Od3LMRqROLXdW-20" edge="1">
          <mxGeometry relative="1" as="geometry" />
        </mxCell>
        <mxCell id="OVV9eZ6Od3LMRqROLXdW-30" style="rounded=0;orthogonalLoop=1;jettySize=auto;html=1;elbow=vertical;curved=0;exitX=0;exitY=1;exitDx=0;exitDy=0;entryX=1;entryY=0;entryDx=0;entryDy=0;strokeWidth=2;jumpStyle=none;endArrow=classicThin;endFill=1;" parent="1" source="OVV9eZ6Od3LMRqROLXdW-8" target="OVV9eZ6Od3LMRqROLXdW-14" edge="1">
          <mxGeometry relative="1" as="geometry" />
        </mxCell>
        <mxCell id="OVV9eZ6Od3LMRqROLXdW-32" style="rounded=0;orthogonalLoop=1;jettySize=auto;html=1;elbow=vertical;curved=0;exitX=0;exitY=0;exitDx=0;exitDy=0;strokeWidth=2;jumpStyle=none;endArrow=classicThin;endFill=1;entryX=0.923;entryY=0.958;entryDx=0;entryDy=0;entryPerimeter=0;" parent="1" source="OVV9eZ6Od3LMRqROLXdW-8" target="OVV9eZ6Od3LMRqROLXdW-16" edge="1">
          <mxGeometry relative="1" as="geometry">
            <mxPoint x="266" y="360" as="targetPoint" />
          </mxGeometry>
        </mxCell>
        <mxCell id="OVV9eZ6Od3LMRqROLXdW-46" style="rounded=0;orthogonalLoop=1;jettySize=auto;html=1;elbow=vertical;curved=0;strokeWidth=2;jumpStyle=none;endArrow=classicThin;endFill=1;" parent="1" source="OVV9eZ6Od3LMRqROLXdW-8" target="OVV9eZ6Od3LMRqROLXdW-24" edge="1">
          <mxGeometry relative="1" as="geometry" />
        </mxCell>
        <mxCell id="OVV9eZ6Od3LMRqROLXdW-28" style="rounded=0;orthogonalLoop=1;jettySize=auto;html=1;elbow=vertical;curved=0;exitX=1;exitY=0;exitDx=0;exitDy=0;entryX=1;entryY=1;entryDx=0;entryDy=0;strokeWidth=2;jumpStyle=none;endArrow=classicThin;endFill=1;" parent="1" source="OVV9eZ6Od3LMRqROLXdW-14" target="OVV9eZ6Od3LMRqROLXdW-15" edge="1">
          <mxGeometry relative="1" as="geometry" />
        </mxCell>
        <mxCell id="OVV9eZ6Od3LMRqROLXdW-45" style="rounded=0;orthogonalLoop=1;jettySize=auto;html=1;elbow=vertical;curved=0;entryX=0;entryY=1;entryDx=0;entryDy=0;exitX=0.5;exitY=0;exitDx=0;exitDy=0;strokeWidth=2;jumpStyle=none;endArrow=classicThin;endFill=1;" parent="1" source="OVV9eZ6Od3LMRqROLXdW-14" target="OVV9eZ6Od3LMRqROLXdW-43" edge="1">
          <mxGeometry relative="1" as="geometry" />
        </mxCell>
        <mxCell id="OVV9eZ6Od3LMRqROLXdW-27" style="rounded=0;orthogonalLoop=1;jettySize=auto;html=1;elbow=vertical;curved=0;strokeWidth=2;jumpStyle=none;endArrow=classicThin;endFill=1;" parent="1" source="OVV9eZ6Od3LMRqROLXdW-16" target="OVV9eZ6Od3LMRqROLXdW-17" edge="1">
          <mxGeometry relative="1" as="geometry" />
        </mxCell>
        <mxCell id="OVV9eZ6Od3LMRqROLXdW-31" style="rounded=0;orthogonalLoop=1;jettySize=auto;html=1;elbow=vertical;curved=0;exitX=0;exitY=1;exitDx=0;exitDy=0;strokeWidth=2;jumpStyle=none;endArrow=classicThin;endFill=1;" parent="1" source="OVV9eZ6Od3LMRqROLXdW-20" target="OVV9eZ6Od3LMRqROLXdW-19" edge="1">
          <mxGeometry relative="1" as="geometry" />
        </mxCell>
        <mxCell id="OVV9eZ6Od3LMRqROLXdW-44" style="rounded=0;orthogonalLoop=1;jettySize=auto;html=1;elbow=vertical;curved=0;strokeWidth=2;jumpStyle=none;endArrow=classicThin;endFill=1;" parent="1" source="OVV9eZ6Od3LMRqROLXdW-20" target="OVV9eZ6Od3LMRqROLXdW-43" edge="1">
          <mxGeometry relative="1" as="geometry" />
        </mxCell>
        <mxCell id="OVV9eZ6Od3LMRqROLXdW-26" style="rounded=0;orthogonalLoop=1;jettySize=auto;html=1;elbow=vertical;curved=0;strokeWidth=2;jumpStyle=none;endArrow=classicThin;endFill=1;" parent="1" source="OVV9eZ6Od3LMRqROLXdW-24" target="OVV9eZ6Od3LMRqROLXdW-25" edge="1">
          <mxGeometry relative="1" as="geometry" />
        </mxCell>
        <mxCell id="OVV9eZ6Od3LMRqROLXdW-35" style="rounded=0;orthogonalLoop=1;jettySize=auto;html=1;elbow=vertical;curved=0;exitX=0;exitY=0;exitDx=0;exitDy=0;strokeWidth=2;jumpStyle=none;endArrow=classicThin;endFill=1;" parent="1" source="OVV9eZ6Od3LMRqROLXdW-33" target="OVV9eZ6Od3LMRqROLXdW-34" edge="1">
          <mxGeometry relative="1" as="geometry" />
        </mxCell>
        <mxCell id="OVV9eZ6Od3LMRqROLXdW-37" style="rounded=0;orthogonalLoop=1;jettySize=auto;html=1;elbow=vertical;curved=0;strokeWidth=2;jumpStyle=none;endArrow=classicThin;endFill=1;" parent="1" source="OVV9eZ6Od3LMRqROLXdW-33" target="OVV9eZ6Od3LMRqROLXdW-36" edge="1">
          <mxGeometry relative="1" as="geometry" />
        </mxCell>
        <mxCell id="OVV9eZ6Od3LMRqROLXdW-42" style="rounded=0;orthogonalLoop=1;jettySize=auto;html=1;elbow=vertical;curved=0;strokeWidth=2;jumpStyle=none;endArrow=classicThin;endFill=1;" parent="1" source="OVV9eZ6Od3LMRqROLXdW-33" target="OVV9eZ6Od3LMRqROLXdW-41" edge="1">
          <mxGeometry relative="1" as="geometry" />
        </mxCell>
        <mxCell id="OVV9eZ6Od3LMRqROLXdW-39" style="rounded=0;orthogonalLoop=1;jettySize=auto;html=1;elbow=vertical;curved=0;exitX=1;exitY=0;exitDx=0;exitDy=0;strokeWidth=2;jumpStyle=none;endArrow=classicThin;endFill=1;" parent="1" source="OVV9eZ6Od3LMRqROLXdW-36" target="OVV9eZ6Od3LMRqROLXdW-38" edge="1">
          <mxGeometry relative="1" as="geometry" />
        </mxCell>
        <mxCell id="OVV9eZ6Od3LMRqROLXdW-40" style="rounded=0;orthogonalLoop=1;jettySize=auto;html=1;elbow=vertical;curved=0;exitX=0;exitY=0;exitDx=0;exitDy=0;entryX=1;entryY=1;entryDx=0;entryDy=0;strokeWidth=2;jumpStyle=none;endArrow=classicThin;endFill=1;" parent="1" source="OVV9eZ6Od3LMRqROLXdW-36" target="OVV9eZ6Od3LMRqROLXdW-18" edge="1">
          <mxGeometry relative="1" as="geometry" />
        </mxCell>
        <mxCell id="OVV9eZ6Od3LMRqROLXdW-6" value="Product" style="ellipse;whiteSpace=wrap;html=1;fillColor=#e1d5e7;strokeColor=#9673a6;" parent="1" vertex="1">
          <mxGeometry x="383" y="525" width="85" height="50" as="geometry" />
        </mxCell>
        <mxCell id="OVV9eZ6Od3LMRqROLXdW-8" value="(1) Visualize and forecast trafficability of forest roads" style="rounded=0;whiteSpace=wrap;html=1;fillColor=#d5e8d4;strokeColor=#82b366;" parent="1" vertex="1">
          <mxGeometry x="440" y="580" width="130" height="50" as="geometry" />
        </mxCell>
        <mxCell id="OVV9eZ6Od3LMRqROLXdW-9" value="Human Sustainability" style="text;html=1;align=center;verticalAlign=middle;resizable=0;points=[];autosize=1;strokeColor=none;fillColor=none;fontSize=16;" parent="1" vertex="1">
          <mxGeometry x="605" y="170" width="170" height="30" as="geometry" />
        </mxCell>
        <mxCell id="OVV9eZ6Od3LMRqROLXdW-10" value="Environmental" style="text;html=1;align=center;verticalAlign=middle;resizable=0;points=[];autosize=1;strokeColor=none;fillColor=none;fontSize=16;" parent="1" vertex="1">
          <mxGeometry x="75" y="170" width="130" height="30" as="geometry" />
        </mxCell>
        <mxCell id="OVV9eZ6Od3LMRqROLXdW-11" value="Technical" style="text;html=1;align=center;verticalAlign=middle;resizable=0;points=[];autosize=1;strokeColor=none;fillColor=none;fontSize=16;" parent="1" vertex="1">
          <mxGeometry x="685" y="900" width="90" height="30" as="geometry" />
        </mxCell>
        <mxCell id="OVV9eZ6Od3LMRqROLXdW-12" value="Economic" style="text;html=1;align=center;verticalAlign=middle;resizable=0;points=[];autosize=1;strokeColor=none;fillColor=none;fontSize=16;" parent="1" vertex="1">
          <mxGeometry x="75" y="900" width="90" height="30" as="geometry" />
        </mxCell>
        <mxCell id="OVV9eZ6Od3LMRqROLXdW-14" value="(4) More efficient transport" style="rounded=0;whiteSpace=wrap;html=1;fillColor=#d5e8d4;strokeColor=#82b366;" parent="1" vertex="1">
          <mxGeometry x="260" y="725" width="110" height="40" as="geometry" />
        </mxCell>
        <mxCell id="OVV9eZ6Od3LMRqROLXdW-15" value="(7) More time on road" style="rounded=0;whiteSpace=wrap;html=1;fillColor=#fff2cc;strokeColor=#d6b656;" parent="1" vertex="1">
          <mxGeometry x="190" y="430" width="80" height="40" as="geometry" />
        </mxCell>
        <mxCell id="OVV9eZ6Od3LMRqROLXdW-16" value="(9) Less damage on roads" style="rounded=0;whiteSpace=wrap;html=1;fillColor=#d5e8d4;strokeColor=#82b366;" parent="1" vertex="1">
          <mxGeometry x="180" y="320" width="100" height="40" as="geometry" />
        </mxCell>
        <mxCell id="OVV9eZ6Od3LMRqROLXdW-17" value="(16) Sustainable forestry" style="rounded=0;whiteSpace=wrap;html=1;fillColor=#d5e8d4;strokeColor=#82b366;" parent="1" vertex="1">
          <mxGeometry x="163" y="210" width="120" height="50" as="geometry" />
        </mxCell>
        <mxCell id="OVV9eZ6Od3LMRqROLXdW-18" value="(8) Deformation of roads" style="rounded=0;whiteSpace=wrap;html=1;fillColor=#f8cecc;strokeColor=#b85450;" parent="1" vertex="1">
          <mxGeometry x="182.5" y="370" width="90" height="50" as="geometry" />
        </mxCell>
        <mxCell id="OVV9eZ6Od3LMRqROLXdW-19" value="(15) Consistent lumber prices" style="rounded=0;whiteSpace=wrap;html=1;fillColor=#d5e8d4;strokeColor=#82b366;" parent="1" vertex="1">
          <mxGeometry x="90" y="830" width="120" height="50" as="geometry" />
        </mxCell>
        <mxCell id="OVV9eZ6Od3LMRqROLXdW-20" value="(6) More consistent harvesting throughout the year" style="rounded=0;whiteSpace=wrap;html=1;fillColor=#d5e8d4;strokeColor=#82b366;" parent="1" vertex="1">
          <mxGeometry x="170" y="528" width="120" height="52" as="geometry" />
        </mxCell>
        <mxCell id="OVV9eZ6Od3LMRqROLXdW-24" value="(11) More efficient transport planning" style="rounded=0;whiteSpace=wrap;html=1;fillColor=#d5e8d4;strokeColor=#82b366;" parent="1" vertex="1">
          <mxGeometry x="440" y="330" width="120" height="40" as="geometry" />
        </mxCell>
        <mxCell id="OVV9eZ6Od3LMRqROLXdW-25" value="(12) Spare time for other activities" style="rounded=0;whiteSpace=wrap;html=1;fillColor=#d5e8d4;strokeColor=#82b366;" parent="1" vertex="1">
          <mxGeometry x="590" y="325" width="80" height="55" as="geometry" />
        </mxCell>
        <mxCell id="OVV9eZ6Od3LMRqROLXdW-33" value="(2) Use of external data sources" style="rounded=0;whiteSpace=wrap;html=1;fillColor=#fff2cc;strokeColor=#d6b656;" parent="1" vertex="1">
          <mxGeometry x="440" y="640" width="130" height="50" as="geometry" />
        </mxCell>
        <mxCell id="OVV9eZ6Od3LMRqROLXdW-34" value="(10) Reuse computationally expensive data" style="rounded=0;whiteSpace=wrap;html=1;fillColor=#d5e8d4;strokeColor=#82b366;" parent="1" vertex="1">
          <mxGeometry x="288" y="325" width="95" height="60" as="geometry" />
        </mxCell>
        <mxCell id="OVV9eZ6Od3LMRqROLXdW-36" value="(3) Potentially unreliable data" style="rounded=0;whiteSpace=wrap;html=1;fillColor=#f8cecc;strokeColor=#b85450;" parent="1" vertex="1">
          <mxGeometry x="445" y="720" width="130" height="50" as="geometry" />
        </mxCell>
        <mxCell id="OVV9eZ6Od3LMRqROLXdW-38" value="(14) Dangerous driving conditions" style="rounded=0;whiteSpace=wrap;html=1;fillColor=#f8cecc;strokeColor=#b85450;" parent="1" vertex="1">
          <mxGeometry x="582.5" y="470" width="87.5" height="50" as="geometry" />
        </mxCell>
        <mxCell id="OVV9eZ6Od3LMRqROLXdW-41" value="(5) Data-owners could require payment" style="rounded=0;whiteSpace=wrap;html=1;fillColor=#f8cecc;strokeColor=#b85450;" parent="1" vertex="1">
          <mxGeometry x="185" y="640" width="85" height="60" as="geometry" />
        </mxCell>
        <mxCell id="OVV9eZ6Od3LMRqROLXdW-43" value="(13) Greater number of assignments delivered consistently over the year" style="rounded=0;whiteSpace=wrap;html=1;fillColor=#d5e8d4;strokeColor=#82b366;" parent="1" vertex="1">
          <mxGeometry x="566.25" y="390" width="117.5" height="70" as="geometry" />
        </mxCell>
        <mxCell id="OVV9eZ6Od3LMRqROLXdW-48" value="" style="endArrow=none;html=1;rounded=0;exitX=0.5;exitY=0;exitDx=0;exitDy=0;entryX=0.5;entryY=0;entryDx=0;entryDy=0;editable=0;movable=1;resizable=1;rotatable=1;deletable=1;locked=0;connectable=1;endFill=1;startFill=0;" parent="1" source="OVV9eZ6Od3LMRqROLXdW-1" target="OVV9eZ6Od3LMRqROLXdW-6" edge="1">
          <mxGeometry width="50" height="50" relative="1" as="geometry">
            <mxPoint x="85" y="560" as="sourcePoint" />
            <mxPoint x="393" y="560" as="targetPoint" />
          </mxGeometry>
        </mxCell>
        <mxCell id="OVV9eZ6Od3LMRqROLXdW-49" value="" style="endArrow=none;html=1;rounded=0;exitX=0.5;exitY=1;exitDx=0;exitDy=0;entryX=0.5;entryY=1;entryDx=0;entryDy=0;editable=0;movable=1;resizable=1;rotatable=1;deletable=1;locked=0;connectable=1;endFill=1;startFill=0;" parent="1" source="OVV9eZ6Od3LMRqROLXdW-1" target="OVV9eZ6Od3LMRqROLXdW-6" edge="1">
          <mxGeometry width="50" height="50" relative="1" as="geometry">
            <mxPoint x="95" y="570" as="sourcePoint" />
            <mxPoint x="403" y="570" as="targetPoint" />
          </mxGeometry>
        </mxCell>
        <mxCell id="OVV9eZ6Od3LMRqROLXdW-50" value="" style="endArrow=none;html=1;rounded=0;exitX=1;exitY=0.5;exitDx=0;exitDy=0;entryX=1;entryY=0.5;entryDx=0;entryDy=0;editable=0;movable=1;resizable=1;rotatable=1;deletable=1;locked=0;connectable=1;endFill=1;startFill=0;" parent="1" source="OVV9eZ6Od3LMRqROLXdW-1" target="OVV9eZ6Od3LMRqROLXdW-6" edge="1">
          <mxGeometry width="50" height="50" relative="1" as="geometry">
            <mxPoint x="105" y="580" as="sourcePoint" />
            <mxPoint x="413" y="580" as="targetPoint" />
          </mxGeometry>
        </mxCell>
      </root>
    </mxGraphModel>
  </diagram>
</mxfile>
